<svg xmlns="http://www.w3.org/2000/svg" xmlns:xlink="http://www.w3.org/1999/xlink" width="72" zoomAndPan="magnify" viewBox="0 0 54 54" height="72" preserveAspectRatio="xMidYMid meet" version="1.0"><defs><clipPath id="f07fccacf8"><path d="M 8 25 L 53.507812 25 L 53.507812 28 L 8 28 Z M 8 25 " clip-rule="nonzero"/></clipPath><clipPath id="4ca539d80a"><path d="M 30 7 L 53.507812 7 L 53.507812 11 L 30 11 Z M 30 7 " clip-rule="nonzero"/></clipPath><clipPath id="aa80cf4004"><path d="M 0.492188 42 L 45 42 L 45 45 L 0.492188 45 Z M 0.492188 42 " clip-rule="nonzero"/></clipPath><clipPath id="a4d14b2528"><path d="M 21 3.902344 L 33 3.902344 L 33 15 L 21 15 Z M 21 3.902344 " clip-rule="nonzero"/></clipPath><clipPath id="fe9d411272"><path d="M 0.492188 21 L 12 21 L 12 32 L 0.492188 32 Z M 0.492188 21 " clip-rule="nonzero"/></clipPath><clipPath id="6052db4f66"><path d="M 42 38 L 53.507812 38 L 53.507812 48.820312 L 42 48.820312 Z M 42 38 " clip-rule="nonzero"/></clipPath><clipPath id="e76f99b54a"><path d="M 0.492188 7 L 24 7 L 24 11 L 0.492188 11 Z M 0.492188 7 " clip-rule="nonzero"/></clipPath></defs><g clip-path="url(#f07fccacf8)"><path fill="#000000" d="M 52.34375 25.101562 C 52.652344 25.101562 52.945312 25.226562 53.164062 25.441406 C 53.382812 25.65625 53.503906 25.949219 53.503906 26.257812 C 53.503906 26.5625 53.382812 26.855469 53.164062 27.074219 C 52.945312 27.289062 52.652344 27.410156 52.34375 27.410156 L 10.125 27.410156 C 9.816406 27.410156 9.519531 27.289062 9.300781 27.074219 C 9.085938 26.855469 8.960938 26.5625 8.960938 26.257812 C 8.960938 25.949219 9.085938 25.65625 9.300781 25.441406 C 9.519531 25.226562 9.816406 25.101562 10.125 25.101562 Z M 52.34375 25.101562 " fill-opacity="1" fill-rule="nonzero"/></g><g clip-path="url(#4ca539d80a)"><path fill="#000000" d="M 52.34375 7.800781 C 52.652344 7.800781 52.945312 7.921875 53.164062 8.136719 C 53.382812 8.351562 53.503906 8.648438 53.503906 8.953125 C 53.503906 9.257812 53.382812 9.554688 53.164062 9.769531 C 52.945312 9.984375 52.652344 10.105469 52.34375 10.105469 L 31.339844 10.105469 C 31.03125 10.105469 30.734375 9.984375 30.515625 9.769531 C 30.300781 9.554688 30.175781 9.257812 30.175781 8.953125 C 30.175781 8.648438 30.300781 8.351562 30.515625 8.136719 C 30.734375 7.921875 31.03125 7.800781 31.339844 7.800781 Z M 52.34375 7.800781 " fill-opacity="1" fill-rule="nonzero"/></g><g clip-path="url(#aa80cf4004)"><path fill="#000000" d="M 43.484375 42.40625 C 43.789062 42.40625 44.085938 42.527344 44.304688 42.746094 C 44.523438 42.960938 44.644531 43.253906 44.644531 43.5625 C 44.644531 43.867188 44.523438 44.160156 44.304688 44.378906 C 44.085938 44.59375 43.789062 44.714844 43.484375 44.714844 L 1.675781 44.714844 C 1.367188 44.714844 1.074219 44.59375 0.855469 44.378906 C 0.636719 44.160156 0.515625 43.867188 0.515625 43.5625 C 0.515625 43.253906 0.636719 42.960938 0.855469 42.746094 C 1.074219 42.527344 1.367188 42.40625 1.675781 42.40625 Z M 43.484375 42.40625 " fill-opacity="1" fill-rule="nonzero"/></g><g clip-path="url(#a4d14b2528)"><path fill="#000000" d="M 21.726562 9.148438 C 21.726562 7.757812 22.28125 6.421875 23.273438 5.4375 C 24.261719 4.453125 25.609375 3.898438 27.007812 3.898438 C 28.410156 3.898438 29.753906 4.453125 30.746094 5.4375 C 31.734375 6.421875 32.292969 7.757812 32.292969 9.148438 C 32.292969 10.542969 31.734375 11.878906 30.746094 12.863281 C 29.753906 13.847656 28.410156 14.402344 27.007812 14.402344 C 25.609375 14.402344 24.261719 13.847656 23.273438 12.863281 C 22.28125 11.878906 21.726562 10.542969 21.726562 9.148438 Z M 24.046875 9.148438 C 24.046875 8.371094 24.359375 7.621094 24.914062 7.070312 C 25.472656 6.519531 26.222656 6.207031 27.007812 6.207031 C 27.792969 6.207031 28.546875 6.519531 29.101562 7.070312 C 29.65625 7.621094 29.96875 8.371094 29.96875 9.148438 C 29.96875 9.929688 29.65625 10.679688 29.101562 11.230469 C 28.546875 11.78125 27.792969 12.09375 27.007812 12.09375 C 26.222656 12.09375 25.472656 11.78125 24.914062 11.230469 C 24.359375 10.679688 24.046875 9.929688 24.046875 9.148438 Z M 24.046875 9.148438 " fill-opacity="1" fill-rule="evenodd"/></g><g clip-path="url(#fe9d411272)"><path fill="#000000" d="M 0.496094 26.261719 C 0.496094 24.871094 1.054688 23.535156 2.042969 22.550781 C 3.035156 21.566406 4.378906 21.011719 5.78125 21.011719 C 7.179688 21.011719 8.527344 21.566406 9.515625 22.550781 C 10.507812 23.535156 11.0625 24.871094 11.0625 26.261719 C 11.0625 27.652344 10.507812 28.992188 9.515625 29.976562 C 8.527344 30.957031 7.179688 31.511719 5.78125 31.511719 C 4.378906 31.511719 3.035156 30.957031 2.042969 29.976562 C 1.054688 28.992188 0.496094 27.652344 0.496094 26.261719 Z M 2.820312 26.261719 C 2.820312 25.480469 3.132812 24.734375 3.6875 24.179688 C 4.242188 23.628906 4.996094 23.320312 5.78125 23.320312 C 6.566406 23.320312 7.320312 23.628906 7.875 24.179688 C 8.429688 24.734375 8.742188 25.480469 8.742188 26.261719 C 8.742188 27.042969 8.429688 27.789062 7.875 28.34375 C 7.320312 28.894531 6.566406 29.203125 5.78125 29.203125 C 4.996094 29.203125 4.242188 28.894531 3.6875 28.34375 C 3.132812 27.789062 2.820312 27.042969 2.820312 26.261719 Z M 2.820312 26.261719 " fill-opacity="1" fill-rule="evenodd"/></g><g clip-path="url(#6052db4f66)"><path fill="#000000" d="M 42.9375 43.566406 C 42.9375 42.171875 43.492188 40.835938 44.484375 39.851562 C 45.472656 38.867188 46.820312 38.316406 48.21875 38.316406 C 49.621094 38.316406 50.964844 38.867188 51.957031 39.851562 C 52.945312 40.835938 53.503906 42.171875 53.503906 43.566406 C 53.503906 44.957031 52.945312 46.292969 51.957031 47.277344 C 50.964844 48.261719 49.621094 48.816406 48.21875 48.816406 C 46.820312 48.816406 45.472656 48.261719 44.484375 47.277344 C 43.492188 46.292969 42.9375 44.957031 42.9375 43.566406 Z M 45.257812 43.566406 C 45.257812 42.785156 45.570312 42.035156 46.125 41.484375 C 46.679688 40.933594 47.433594 40.625 48.21875 40.625 C 49.003906 40.625 49.757812 40.933594 50.3125 41.484375 C 50.867188 42.035156 51.179688 42.785156 51.179688 43.566406 C 51.179688 44.34375 50.867188 45.09375 50.3125 45.644531 C 49.757812 46.195312 49.003906 46.507812 48.21875 46.507812 C 47.433594 46.507812 46.679688 46.195312 46.125 45.644531 C 45.570312 45.09375 45.257812 44.34375 45.257812 43.566406 Z M 45.257812 43.566406 " fill-opacity="1" fill-rule="evenodd"/></g><g clip-path="url(#e76f99b54a)"><path fill="#000000" d="M 22.574219 7.800781 C 22.882812 7.800781 23.175781 7.921875 23.394531 8.136719 C 23.613281 8.351562 23.734375 8.648438 23.734375 8.953125 C 23.734375 9.257812 23.613281 9.554688 23.394531 9.769531 C 23.175781 9.984375 22.882812 10.105469 22.574219 10.105469 L 1.675781 10.105469 C 1.367188 10.105469 1.074219 9.984375 0.855469 9.769531 C 0.636719 9.554688 0.515625 9.257812 0.515625 8.953125 C 0.515625 8.648438 0.636719 8.351562 0.855469 8.136719 C 1.074219 7.921875 1.367188 7.800781 1.675781 7.800781 Z M 22.574219 7.800781 " fill-opacity="1" fill-rule="nonzero"/></g></svg>